<svg width="62" height="62" viewBox="0 0 62 62" fill="none" xmlns="http://www.w3.org/2000/svg">
<circle cx="31" cy="31" r="30.5" fill="white" stroke="#B8B8B8"/>
<path d="M53.7928 21.4031C52.5525 18.4429 50.7481 15.7523 48.4802 13.4812C46.2191 11.2062 43.5332 9.39739 40.5749 8.15755C37.5444 6.88127 34.2883 6.22704 31.0001 6.23374H30.8895C27.545 6.25032 24.311 6.91371 21.2649 8.21836C18.3321 9.47091 15.6713 11.2829 13.4315 13.5531C11.1856 15.819 9.40183 18.5003 8.17971 21.4473C6.91107 24.512 6.26825 27.7994 6.28906 31.1161C6.30565 34.9527 7.22333 38.7616 8.93707 42.167V50.5699C8.93707 51.974 10.0759 53.1128 11.4745 53.1128H19.8663C23.2876 54.8392 27.0629 55.7476 30.895 55.7663H31.0111C34.317 55.7663 37.5178 55.1251 40.5362 53.8702C43.4795 52.6451 46.1554 50.8574 48.4139 48.6073C50.6915 46.3463 52.4826 43.7038 53.7375 40.7573C55.0367 37.7057 55.7 34.4607 55.7166 31.1106C55.7277 27.7439 55.0754 24.4768 53.7928 21.4031ZM19.9658 33.6536C18.5064 33.6536 17.3178 32.465 17.3178 31C17.3178 29.5351 18.5064 28.3465 19.9658 28.3465C21.4253 28.3465 22.6138 29.5351 22.6138 31C22.6138 32.465 21.4308 33.6536 19.9658 33.6536ZM31.0001 33.6536C29.5406 33.6536 28.3521 32.465 28.3521 31C28.3521 29.5351 29.5406 28.3465 31.0001 28.3465C32.4595 28.3465 33.6481 29.5351 33.6481 31C33.6481 32.465 32.4595 33.6536 31.0001 33.6536ZM42.0344 33.6536C40.5749 33.6536 39.3863 32.465 39.3863 31C39.3863 29.5351 40.5749 28.3465 42.0344 28.3465C43.4938 28.3465 44.6824 29.5351 44.6824 31C44.6824 32.465 43.4938 33.6536 42.0344 33.6536Z" fill="#BB6BD9"/>
</svg>
